# xmcd
#
# Track frame offsets: 
#        150
#        19537
#        36127
#        55119
#        73753
#        94087
#        116244
#        131718
#        145309
#        163687
#
# Disc length: 2415 seconds
#
# Revision: 0
# Processed by: cddbd v1.5.2PL0 Copyright (c) Steve Scherf et al.
# Submitted via: ExactAudioCopy v1.1
#
DISCID=8c096d0a
DTITLE=Gunner&Smith - Byzantinum
DYEAR=2019
DGENRE=Country
TTITLE0=Wicked Smile
TTITLE1=Fever
TTITLE2=If The Light Comes
TTITLE3=Hush Now
TTITLE4=I Know So Well
TTITLE5=The Barrens
TTITLE6=Strong Man
TTITLE7=Wisconsin
TTITLE8=I Had a Dollar
TTITLE9=Byzantinum
EXTD=
EXTT0=
EXTT1=
EXTT2=
EXTT3=
EXTT4=
EXTT5=
EXTT6=
EXTT7=
EXTT8=
EXTT9=
PLAYORDER=
